<svg width="368" height="369" viewBox="0 0 368 369" fill="none" xmlns="http://www.w3.org/2000/svg">
<path d="M283.455 329.889H68.9205C66.8609 329.889 64.8214 329.483 62.9185 328.695C61.0157 327.907 59.2866 326.752 57.8302 325.296C56.3738 323.839 55.2185 322.111 54.4302 320.208C53.642 318.305 53.2363 316.265 53.2363 314.206V174.511C53.2364 170.503 54.7713 166.646 57.5257 163.734C60.2801 160.822 64.045 159.076 68.0471 158.853L290.859 146.434C300.188 145.913 307.899 153.615 307.39 162.945L299.112 315.057C298.895 319.063 297.15 322.833 294.238 325.591C291.326 328.35 287.467 329.888 283.455 329.889Z" fill="#FA541C"/>
<path opacity="0.48" d="M181.199 245.595L298.47 147.929C296.101 146.797 293.484 146.283 290.863 146.434L68.0504 158.852C64.3596 159.055 60.8599 160.559 58.1729 163.097L145.94 244.722C155.467 253.583 171.141 253.97 181.199 245.595Z" fill="#B3200E"/>
<path d="M164.893 240.755C158.884 240.749 153.085 238.542 148.593 234.551L115.532 205.357C115.076 204.943 114.802 204.366 114.768 203.752C114.734 203.137 114.943 202.533 115.351 202.072C115.758 201.61 116.331 201.327 116.945 201.284C117.56 201.241 118.166 201.442 118.634 201.843L151.703 231.037C155.085 234.046 159.392 235.809 163.912 236.035C168.433 236.261 172.895 234.937 176.559 232.281L193.695 219.965C196.202 218.212 198.917 221.925 196.43 223.771C188.316 228.908 175.239 241.802 164.893 240.755Z" fill="#FDAB76"/>
<path d="M104.774 195.082C103.417 195.339 99.7825 191.218 98.771 190.566C96.4974 188.49 99.5284 185.051 101.874 187.052L106.326 190.982C107.958 192.323 106.846 195.16 104.774 195.082Z" fill="#FDAB76"/>
<path d="M137.114 99.9609L128.164 147.882L156.068 123.349L137.114 99.9609Z" fill="#FDAB76"/>
<path d="M340.211 114.413L146.268 123.825C145.088 123.883 143.908 123.699 142.8 123.287C141.692 122.875 140.68 122.242 139.824 121.427C138.969 120.612 138.287 119.631 137.822 118.545C137.356 117.459 137.116 116.289 137.116 115.107V35.3181C137.116 31.1465 138.74 27.1387 141.644 24.1438C144.548 21.1489 148.503 19.4022 152.673 19.2736L327.47 13.8642C340.483 13.8642 351.033 24.4166 351.033 37.4325V103.055C351.032 105.975 349.908 108.783 347.893 110.898C345.879 113.012 343.128 114.271 340.211 114.413Z" fill="#FDAB76"/>
<path d="M152.067 120.405C145.765 120.529 140.165 114.952 140.308 108.628V36.7156C140.308 28.3578 147.012 21.6087 155.571 21.3496L324.808 16.24C337.514 16.24 347.84 26.3211 347.84 38.7128V100.711C347.84 106.562 343.152 111.367 337.165 111.65C336.588 111.666 152.599 120.42 152.067 120.405ZM324.814 16.6496L155.582 21.7592C147.247 22.0059 140.719 28.5799 140.719 36.7143V108.628C140.72 110.166 141.032 111.687 141.638 113.1C142.244 114.514 143.13 115.789 144.242 116.85C145.355 117.911 146.672 118.736 148.112 119.273C149.553 119.811 151.088 120.05 152.624 119.977L337.146 111.238C342.911 110.966 347.429 106.341 347.429 100.709V38.7128C347.429 26.5481 337.285 16.6496 324.814 16.6496Z" fill="#FEE9D1"/>
<path d="M167.857 52.5602C168.608 52.6181 169.036 53.0536 169.531 53.631L191.145 79.2174C190.712 77.6051 190.116 54.0195 189.965 51.7238L196.418 51.4906L197.835 90.8628C196.799 90.8122 193.49 91.2464 192.597 90.7789C192.21 90.6111 191.825 90.2978 191.446 89.8389L169.917 64.3597C170.272 65.5514 170.946 89.8648 171.069 91.8262L164.616 92.0594L163.199 52.6872C163.802 52.6798 167.347 52.4985 167.857 52.5602Z" fill="#FEE9D1"/>
<path d="M229.2 50.3113L229.409 56.1377L211.956 56.7656L212.35 67.6844L226.1 67.1909L226.303 72.8273L212.552 73.3208L212.953 84.4566L230.406 83.8287L230.617 89.6822L205.785 90.5766L204.368 51.2057L229.2 50.3113Z" fill="#FEE9D1"/>
<path d="M231.895 50.2139C233.139 50.373 238.667 49.5267 239.657 50.3841C240.087 50.6594 240.406 51.0774 240.558 51.5647C241.38 54.3859 248.904 76.5195 249.095 78.9028C249.194 76.6244 256.164 53.7371 256.867 50.9775C257.439 49.016 259.728 49.1862 261.381 49.1529C262.561 49.0962 263.5 49.6538 263.891 50.7246C264.772 53.3411 273.266 75.7016 273.592 77.8296C273.592 75.7769 279.555 52.7193 280.119 50.1411C280.244 49.6617 280.526 49.2383 280.921 48.9395C281.813 47.9526 287.036 48.4103 288.228 48.1858L277.42 87.9971L270.804 88.2364L261.231 61.6445C261.108 61.3041 260.985 60.9352 260.85 60.5405C260.716 60.1457 260.59 59.7226 260.464 59.2723C260.429 60.1358 252.524 87.3988 252.153 88.9075L245.536 89.1456L231.895 50.2139Z" fill="#FEE9D1"/>
<path d="M313.89 54.4328C312.328 57.7525 309.013 52.5713 304.268 53.1424C301.888 53.2165 299.537 54.0701 298.656 56.303C298.148 57.6205 298.204 59.5647 299.206 60.6046C301.303 62.814 304.778 63.173 307.65 64.1574C311.042 65.185 314.583 66.6678 316.178 70.0788C318.067 74.2114 317.078 80.0995 313.849 83.4019C307.966 89.5095 296.735 88.3955 290.781 82.774C294.563 75.1909 294.298 78.8658 300.384 81.0469C302.728 81.8882 307.037 81.5675 308.695 79.8207C310.348 78.4526 310.908 74.7937 309.391 72.9926C306.414 69.8987 301.343 70.2132 297.595 68.3196C292.339 66.3459 290.234 59.931 292.212 54.7178C295.594 45.7358 309.047 45.1104 315.562 50.9059L313.89 54.4328Z" fill="#FEE9D1"/>
<path d="M74.2467 206.432C74.1393 206.635 67.3594 211.624 67.3594 211.624C69.1802 224.894 78.4619 234.076 91.0609 222.735C91.0609 222.735 98.5736 224.522 102.569 208.883C103.486 205.294 98.1949 204.991 91.8097 205.652C83.574 206.501 74.2467 206.432 74.2467 206.432Z" fill="#063963"/>
<path d="M57.1048 248.183C68.2542 240.952 67.6596 244.112 80.9765 245.067C106.44 239.367 118.548 248.135 125.348 272.783C120.354 277.912 114.067 280.185 114.067 280.185L112.906 327.261L85.0684 341.513L53.2966 325.558L54.434 279.552C54.434 279.552 44.3455 274.853 43.6053 273.145C42.8651 271.436 48.203 254.303 57.1048 248.183Z" fill="#22B8CF"/>
<path d="M44.0744 272.939C44.0744 272.939 30.5552 310.426 61.3857 325.829C67.7919 324.983 65.3247 314.346 65.3247 314.346C65.3247 314.346 51.9276 311.386 55.9492 280.113C52.2483 277.065 44.0744 272.939 44.0744 272.939Z" fill="#FDBAB9"/>
<path d="M124.7 272.939C124.7 272.939 134.003 312.067 107.393 325.829C100.991 324.978 103.452 314.346 103.452 314.346C103.452 314.346 114.25 309.029 112.828 280.113C116.521 277.065 124.7 272.939 124.7 272.939Z" fill="#FDBAB9"/>
<path d="M111.289 287.236H55.6194C54.1355 287.236 52.9326 288.439 52.9326 289.923V325.774C52.9326 327.258 54.1355 328.461 55.6194 328.461H111.289C112.773 328.461 113.976 327.258 113.976 325.774V289.923C113.976 288.439 112.773 287.236 111.289 287.236Z" fill="#116E95"/>
<path d="M141.437 340.858C134.64 338.998 117.677 339.953 117.612 339.942C116.806 340.951 116.088 349.209 115.868 350.559C116.157 350.384 133.823 354.242 140.951 353.007C146.638 351.238 147.312 342.51 141.437 340.858Z" fill="#063963"/>
<path d="M112.978 339.443C115.26 339.494 118.036 339.431 119.552 341.546C121.325 343.644 121.569 347.369 119.482 349.351C117.857 351.299 114.219 350.294 112.1 350.268L112.978 339.443Z" fill="#FDBAB9"/>
<path d="M44.7982 341.599L44.1814 339.801C44.0901 339.824 27.2056 338.32 20.343 339.986C14.4315 341.457 14.8867 350.201 20.5256 352.145C27.5054 353.596 45.5236 350.288 45.6593 350.469L44.7982 341.599Z" fill="#063963"/>
<path opacity="0.48" d="M44.7982 341.599L44.1814 339.801C44.0901 339.824 27.2056 338.32 20.343 339.986C14.4315 341.457 14.8867 350.201 20.5256 352.145C27.5054 353.596 45.5236 350.288 45.6593 350.469L44.7982 341.599Z" fill="black"/>
<path d="M48.8348 339.446C46.5563 339.426 43.777 339.277 42.2103 341.347C40.3809 343.393 40.054 347.112 42.087 349.15C43.6598 351.145 47.32 350.261 49.443 350.294L48.8348 339.446Z" fill="#FDBAB9"/>
<path d="M142.7 312.971C139.532 305.679 131.784 304.496 125.183 307.904C125.068 308.055 83.3014 329.462 46.4668 338.843C47.7214 342.966 48.3456 347.381 48.1445 351.688C76.3943 350.237 107.046 340.816 133.387 332.538C141.561 329.903 146.212 321.052 142.7 312.971Z" fill="#063963"/>
<path opacity="0.48" d="M142.7 312.971C139.532 305.679 131.784 304.496 125.183 307.904C125.068 308.055 83.3014 329.462 46.4668 338.843C47.7214 342.966 48.3456 347.381 48.1445 351.688C76.3943 350.237 107.046 340.816 133.387 332.538C141.561 329.903 146.212 321.052 142.7 312.971Z" fill="black"/>
<path d="M113.178 349.91C113.009 345.63 114.042 341.768 115.713 338.054C88.7648 329.596 62.3136 318.074 42.171 306.916C24.2836 297.503 15.5249 325.768 33.5678 331.168C66.2081 344.466 79.4682 347.415 113.222 350.797C113.206 350.501 113.19 350.205 113.178 349.91Z" fill="#063963"/>
<path d="M67.4512 243.37C70.36 258.468 96.8113 259.83 99.0713 243.331L89.9844 241.387L89.2245 231.262L75.5573 232.274L75.3044 241.896L67.4512 243.37Z" fill="#FDBAB9"/>
<path d="M78.6945 204.639C60.4135 236.936 95.7407 253.333 97.01 213.624C93.8236 204.705 91.7265 205.763 91.7265 205.763L78.6945 204.639Z" fill="#FDBAB9"/>
<path d="M100.177 202.319C106.68 204.107 101.122 218.212 91.3304 214.876C81.5392 211.54 77.6903 211.59 76.1643 214.278C74.6384 216.966 74.3139 226.515 71.0004 221.795C67.3699 216.622 65.3467 206.236 69.7964 202.888C73.7748 199.896 74.7025 195.257 79.4729 195.417C85.8051 195.63 90.6988 192.826 93.5596 194.848C96.8422 197.18 95.3915 201.004 100.177 202.319Z" fill="#063963"/>
<path d="M75.5643 216.471C70.0131 210.73 72.3878 227.347 74.9907 222.851C76.6746 220.281 75.5643 216.471 75.5643 216.471Z" fill="#FDBAB9"/>
</svg>
